<mxfile host="app.diagrams.net" modified="2024-06-23T03:51:24.390Z" agent="Mozilla/5.0 (Windows NT 10.0; Win64; x64) AppleWebKit/537.36 (KHTML, like Gecko) Chrome/126.0.0.0 Safari/537.36" version="24.4.13" etag="1Di9L5jLYbY9Y8FX1JHQ" type="github">
  <diagram name="페이지-1" id="QLUi5huzt6tUBBUbmpxI">
    <mxGraphModel>
      <root>
        <mxCell id="0" />
        <mxCell id="1" parent="0" />
      </root>
    </mxGraphModel>
  </diagram>
</mxfile>
